<svg width="61" height="40" viewBox="0 0 61 40" fill="none" xmlns="http://www.w3.org/2000/svg">
<path d="M21.2727 18.8047C21.0788 18.1307 20.8065 17.5352 20.4556 17.0181C20.1048 16.4918 19.6754 16.0487 19.1676 15.6886C18.669 15.3192 18.0966 15.0376 17.4503 14.8438C16.8132 14.6499 16.1069 14.5529 15.3313 14.5529C13.8817 14.5529 12.6076 14.913 11.5089 15.6332C10.4194 16.3533 9.56996 17.4013 8.96058 18.777C8.35121 20.1435 8.04652 21.8146 8.04652 23.7905C8.04652 25.7663 8.34659 27.4467 8.94673 28.8317C9.54688 30.2166 10.3963 31.2738 11.495 32.0032C12.5938 32.7234 13.891 33.0835 15.3867 33.0835C16.744 33.0835 17.9027 32.8434 18.8629 32.3633C19.8324 31.8739 20.571 31.1861 21.0788 30.2997C21.5959 29.4134 21.8544 28.3654 21.8544 27.1559L23.0732 27.3359H15.7607V22.821H27.6296V26.3942C27.6296 28.8871 27.1033 31.0291 26.0508 32.8203C24.9982 34.6023 23.5487 35.978 21.7021 36.9474C19.8555 37.9077 17.7411 38.3878 15.359 38.3878C12.6999 38.3878 10.364 37.8015 8.35121 36.6289C6.33842 35.4471 4.76882 33.7713 3.6424 31.6016C2.52521 29.4226 1.96662 26.8374 1.96662 23.8459C1.96662 21.5469 2.29901 19.4972 2.96378 17.6967C3.63778 15.8871 4.57955 14.3544 5.78906 13.0987C6.99858 11.843 8.40661 10.8874 10.0131 10.2319C11.6197 9.57635 13.3601 9.24858 15.2344 9.24858C16.8409 9.24858 18.3366 9.48402 19.7216 9.9549C21.1065 10.4165 22.3345 11.0721 23.4055 11.9215C24.4858 12.771 25.3675 13.782 26.0508 14.9545C26.734 16.1179 27.1726 17.4013 27.3665 18.8047H21.2727Z" fill="#24B36B"/>
<path d="M58.4911 19.5664H52.4251C52.3143 18.7816 52.0881 18.0845 51.7464 17.4751C51.4048 16.8565 50.9663 16.3303 50.4308 15.8963C49.8952 15.4624 49.2766 15.13 48.5749 14.8991C47.8825 14.6683 47.13 14.5529 46.3175 14.5529C44.8494 14.5529 43.5707 14.9176 42.4812 15.647C41.3917 16.3672 40.5469 17.4197 39.9467 18.8047C39.3466 20.1804 39.0465 21.8516 39.0465 23.8182C39.0465 25.8402 39.3466 27.5391 39.9467 28.9148C40.5561 30.2905 41.4055 31.3292 42.495 32.0309C43.5845 32.7326 44.8448 33.0835 46.2759 33.0835C47.0792 33.0835 47.8224 32.9773 48.5057 32.7649C49.1982 32.5526 49.8121 32.2433 50.3477 31.837C50.8832 31.4215 51.3264 30.9183 51.6772 30.3274C52.0373 29.7365 52.2866 29.0625 52.4251 28.3054L58.4911 28.3331C58.3342 29.6349 57.9418 30.8906 57.3139 32.1001C56.6953 33.3004 55.8597 34.3761 54.8072 35.3271C53.7638 36.2688 52.5174 37.0167 51.0678 37.5707C49.6275 38.1154 47.9979 38.3878 46.179 38.3878C43.6491 38.3878 41.3871 37.8153 39.3928 36.6705C37.4077 35.5256 35.8381 33.8683 34.6839 31.6985C33.5391 29.5288 32.9666 26.902 32.9666 23.8182C32.9666 20.7251 33.5483 18.0938 34.7116 15.924C35.875 13.7543 37.4538 12.1016 39.4482 10.9659C41.4425 9.82102 43.6861 9.24858 46.179 9.24858C47.8224 9.24858 49.3459 9.4794 50.7493 9.94105C52.1619 10.4027 53.413 11.0767 54.5025 11.9631C55.592 12.8402 56.4783 13.9158 57.1616 15.19C57.854 16.4641 58.2972 17.9229 58.4911 19.5664Z" fill="white"/>
</svg>
